<svg width="997" height="326" viewBox="0 0 997 326" fill="none" xmlns="http://www.w3.org/2000/svg">
<path fill-rule="evenodd" clip-rule="evenodd" d="M326 163C326 181.638 322.872 199.546 317.112 216.226C312.989 214.178 309.334 211.215 306.147 207.338C299.571 198.935 296.283 188.067 296.283 174.732C296.283 161.397 299.571 150.62 306.147 142.4C310.749 136.678 316.325 132.905 322.876 131.079C324.925 141.402 326 152.075 326 163ZM311.189 95.0154C285.42 38.9383 228.757 0 163 0C72.9776 0 0 72.9776 0 163C0 253.022 72.9776 326 163 326C220.353 326 270.787 296.379 299.84 251.601C306.708 254.059 314.108 255.288 322.039 255.288C329.711 255.288 336.378 254.192 342.041 252C347.886 249.808 353.275 246.063 358.207 240.766C359.668 239.305 360.855 238.574 361.769 238.574C363.047 238.574 363.687 239.579 363.687 241.588V247.068C363.687 250.356 365.331 252 368.619 252H400.403C403.691 252 405.335 250.356 405.335 247.068V47.87C405.335 44.582 403.691 42.938 400.403 42.938H368.619C365.331 42.938 363.687 44.582 363.687 47.87V106.78C363.687 109.337 362.956 110.616 361.495 110.616C360.764 110.616 359.668 109.885 358.207 108.424C353.275 103.309 347.886 99.656 342.041 97.464C336.378 95.272 329.711 94.176 322.039 94.176C318.304 94.176 314.688 94.4558 311.189 95.0154ZM311.189 95.0154C316.417 106.392 320.373 118.474 322.876 131.079C325.945 130.224 329.228 129.796 332.725 129.796C343.685 129.796 352.544 133.997 359.303 142.4C366.244 150.62 369.715 161.397 369.715 174.732C369.715 188.067 366.244 198.935 359.303 207.338C352.544 215.558 343.685 219.668 332.725 219.668C326.934 219.668 321.73 218.521 317.112 216.226C312.775 228.784 306.947 240.646 299.84 251.601C295.318 249.983 291.027 247.833 286.967 245.15C276.737 238.209 268.7 228.71 262.855 216.654C257.192 204.415 254.361 190.441 254.361 174.732C254.361 159.023 257.192 145.14 262.855 133.084C268.7 120.845 276.737 111.347 286.967 104.588C294.291 99.6176 302.366 96.4267 311.189 95.0154ZM141.554 255.288C126.758 255.288 114.611 251.269 105.112 243.232C95.6133 235.012 90.864 223.595 90.864 208.982C90.864 193.273 97.0747 181.217 109.496 172.814C117.533 167.334 129.589 163.133 145.664 160.21L184.024 153.086C187.129 152.538 188.591 150.62 188.408 147.332C187.312 141.121 185.12 136.189 181.832 132.536C177.813 128.152 171.785 125.96 163.748 125.96C158.268 125.96 153.245 127.604 148.678 130.892C144.111 133.997 140.823 138.29 138.814 143.77C138.083 146.51 136.257 147.88 133.334 147.88H102.098C98.262 147.88 96.8007 146.053 97.714 142.4C101.185 126.508 109.131 114.543 121.552 106.506C133.973 98.286 148.13 94.176 164.022 94.176C173.338 94.176 182.106 95.4547 190.326 98.012C198.546 100.569 205.579 104.405 211.424 109.52C217.269 114.635 221.471 120.571 224.028 127.33C226.768 134.089 228.412 141.03 228.96 148.154C229.691 155.095 230.056 164.137 230.056 175.28V247.068C230.056 250.356 228.412 252 225.124 252H193.34C190.052 252 188.408 250.356 188.408 247.068V241.862C188.408 238.939 187.86 237.478 186.764 237.478C186.216 237.478 185.394 238.117 184.298 239.396C181.193 242.867 178.453 245.333 176.078 246.794C167.675 252.457 156.167 255.288 141.554 255.288ZM152.788 223.23C159.181 223.23 165.209 221.86 170.872 219.12C177.083 216.197 181.558 212.27 184.298 207.338C187.038 202.406 188.682 195.921 189.23 187.884V187.336C189.23 185.692 188.682 184.505 187.586 183.774C186.673 183.043 185.394 182.861 183.75 183.226L156.898 188.432C151.601 189.528 147.399 190.715 144.294 191.994C141.371 193.273 138.905 194.825 136.896 196.652C133.791 199.757 132.238 203.411 132.238 207.612C132.238 212.727 134.156 216.654 137.992 219.394C141.828 221.951 146.76 223.23 152.788 223.23ZM484.927 252C482.187 252 480.269 250.721 479.173 248.164L425.743 103.218C425.561 102.853 425.469 102.213 425.469 101.3C425.469 98.7427 426.931 97.464 429.853 97.464H463.829C466.752 97.464 468.579 98.834 469.309 101.574L493.695 179.664C494.609 181.856 495.705 182.952 496.983 182.952C498.445 182.952 499.541 181.856 500.271 179.664L525.753 101.574C526.301 98.834 528.128 97.464 531.233 97.464H564.935C566.214 97.464 567.219 97.8293 567.949 98.56C568.863 99.108 569.319 99.93 569.319 101.026L568.771 103.218L515.341 248.164C514.245 250.721 512.327 252 509.587 252H484.927ZM629.349 255.288C614.553 255.288 602.406 251.269 592.907 243.232C583.408 235.012 578.659 223.595 578.659 208.982C578.659 193.273 584.87 181.217 597.291 172.814C605.328 167.334 617.384 163.133 633.459 160.21L671.819 153.086C674.924 152.538 676.386 150.62 676.203 147.332C675.107 141.121 672.915 136.189 669.627 132.536C665.608 128.152 659.58 125.96 651.543 125.96C646.063 125.96 641.04 127.604 636.473 130.892C631.906 133.997 628.618 138.29 626.609 143.77C625.878 146.51 624.052 147.88 621.129 147.88H589.893C586.057 147.88 584.596 146.053 585.509 142.4C588.98 126.508 596.926 114.543 609.347 106.506C621.768 98.286 635.925 94.176 651.817 94.176C661.133 94.176 669.901 95.4547 678.121 98.012C686.341 100.569 693.374 104.405 699.219 109.52C705.064 114.635 709.266 120.571 711.823 127.33C714.563 134.089 716.207 141.03 716.755 148.154C717.486 155.095 717.851 164.137 717.851 175.28V247.068C717.851 250.356 716.207 252 712.919 252H681.135C677.847 252 676.203 250.356 676.203 247.068V241.862C676.203 238.939 675.655 237.478 674.559 237.478C674.011 237.478 673.189 238.117 672.093 239.396C668.988 242.867 666.248 245.333 663.873 246.794C655.47 252.457 643.962 255.288 629.349 255.288ZM640.583 223.23C646.976 223.23 653.004 221.86 658.667 219.12C664.878 216.197 669.353 212.27 672.093 207.338C674.833 202.406 676.477 195.921 677.025 187.884V187.336C677.025 185.692 676.477 184.505 675.381 183.774C674.468 183.043 673.189 182.861 671.545 183.226L644.693 188.432C639.396 189.528 635.194 190.715 632.089 191.994C629.166 193.273 626.7 194.825 624.691 196.652C621.586 199.757 620.033 203.411 620.033 207.612C620.033 212.727 621.951 216.654 625.787 219.394C629.623 221.951 634.555 223.23 640.583 223.23ZM752.842 252C749.554 252 747.91 250.356 747.91 247.068V102.396C747.91 99.108 749.554 97.464 752.842 97.464H784.626C787.914 97.464 789.558 99.108 789.558 102.396V106.78C789.558 109.337 790.288 110.616 791.75 110.616C792.48 110.616 793.576 109.885 795.038 108.424C799.97 103.309 805.267 99.656 810.93 97.464C816.592 95.272 822.986 94.176 830.11 94.176C855.135 94.176 871.484 102.944 879.156 120.48C882.078 126.508 883.814 132.627 884.362 138.838C885.092 145.049 885.458 153.543 885.458 164.32V247.068C885.458 250.356 883.814 252 880.526 252H849.016C845.728 252 844.084 250.356 844.084 247.068V163.772C844.084 156.1 843.536 149.981 842.44 145.414C841.344 140.665 839.517 136.92 836.96 134.18C832.941 129.979 826.913 127.878 818.876 127.878C808.646 127.878 801.248 130.801 796.682 136.646C794.124 139.751 792.298 143.861 791.202 148.976C790.106 154.091 789.558 160.849 789.558 169.252V247.068C789.558 250.356 787.914 252 784.626 252H752.842ZM962.293 252C950.785 252 941.926 249.351 935.715 244.054C929.505 238.574 926.399 230.445 926.399 219.668V135.276C926.399 131.988 924.755 130.344 921.467 130.344H909.411C907.95 130.344 906.763 129.887 905.849 128.974C904.936 128.061 904.479 126.873 904.479 125.412V102.396C904.479 99.108 906.123 97.464 909.411 97.464H921.467C924.755 97.464 926.399 95.82 926.399 92.532V47.87C926.399 44.582 928.043 42.938 931.331 42.938H963.115C966.403 42.938 968.047 44.582 968.047 47.87V92.532C968.047 95.82 969.691 97.464 972.979 97.464H991.337C994.625 97.464 996.269 99.108 996.269 102.396V125.412C996.269 128.7 994.625 130.344 991.337 130.344H972.979C969.691 130.344 968.047 131.988 968.047 135.276V206.242C968.047 209.895 968.778 212.818 970.239 215.01C971.701 217.019 974.623 218.024 979.007 218.024H991.063C994.351 218.024 995.995 219.668 995.995 222.956V247.068C995.995 250.356 994.351 252 991.063 252H962.293ZM163.535 73.4545C171.819 73.4545 178.535 66.6371 178.535 58.2273C178.535 49.8175 171.819 43 163.535 43C155.251 43 148.535 49.8175 148.535 58.2273C148.535 66.6371 155.251 73.4545 163.535 73.4545ZM139 58C139 63.5228 134.523 68 129 68C123.477 68 119 63.5228 119 58C119 52.4772 123.477 48 129 48C134.523 48 139 52.4772 139 58ZM196.146 68C201.669 68 206.146 63.5228 206.146 58C206.146 52.4772 201.669 48 196.146 48C190.623 48 186.146 52.4772 186.146 58C186.146 63.5228 190.623 68 196.146 68Z" fill="white"/>
</svg>
